<?xml version="1.0" encoding="utf-8"?>
<!-- Generator: Adobe Illustrator 27.3.0, SVG Export Plug-In . SVG Version: 6.00 Build 0)  -->
<svg version="1.1" id="Layer_1" xmlns="http://www.w3.org/2000/svg" xmlns:xlink="http://www.w3.org/1999/xlink" x="0px" y="0px"
	 viewBox="0 0 666.7 666.7" style="enable-background:new 0 0 666.7 666.7;" xml:space="preserve">
<style type="text/css">
	.st0{fill:#FF695F;}
</style>
<g>
	<path class="st0" d="M176.4,627.5L0,666.7l39.2-176.4C13.4,442-0.1,388.1,0,333.3C0,149.2,149.2,0,333.3,0s333.3,149.2,333.3,333.3
		S517.4,666.7,333.3,666.7C278.6,666.7,224.7,653.3,176.4,627.5z M186,557l21.8,11.7c38.6,20.6,81.7,31.4,125.5,31.3
		C480.6,600,600,480.6,600,333.3S480.6,66.7,333.3,66.7S66.7,186.1,66.7,333.3c0,44.5,10.8,87.3,31.3,125.5l11.6,21.8l-21.8,98.2
		L186,557L186,557z M166.7,333.3h66.7c0,55.2,44.8,100,100,100s100-44.8,100-100H500c0,92-74.6,166.7-166.7,166.7
		S166.7,425.4,166.7,333.3z"/>
</g>
</svg>
