<?xml version="1.0" encoding="utf-8"?>
<!-- Generator: Adobe Illustrator 27.3.0, SVG Export Plug-In . SVG Version: 6.00 Build 0)  -->
<svg version="1.1" id="Layer_1" xmlns="http://www.w3.org/2000/svg" xmlns:xlink="http://www.w3.org/1999/xlink" x="0px" y="0px"
	 viewBox="0 0 800 800" style="enable-background:new 0 0 800 800;" xml:space="preserve">
<style type="text/css">
	.st0{fill:#FF695F;}
</style>
<path class="st0" d="M400,0C179.1,0,0,179.1,0,400s179.1,400,400,400s400-179.1,400-400S620.9,0,400,0z M488.3,332.2l-4.5,59.8
	h-61.4v207.8h-77.5V392h-41.4v-59.8h41.4V292c0-17.7,0.5-45,13.3-62c13.6-18,32.2-30.2,64.2-30.2c52.2,0,74.1,7.5,74.1,7.5
	l-10.3,61.3c0,0-17.2-5-33.3-5c-16.1,0-30.5,5.8-30.5,21.9v46.7H488.3z"/>
</svg>
