<?xml version="1.0" encoding="utf-8"?>
<!-- Generator: Adobe Illustrator 27.3.0, SVG Export Plug-In . SVG Version: 6.00 Build 0)  -->
<svg version="1.1" id="Layer_1" xmlns="http://www.w3.org/2000/svg" xmlns:xlink="http://www.w3.org/1999/xlink" x="0px" y="0px"
	 viewBox="0 0 800 650.2" style="enable-background:new 0 0 800 650.2;" xml:space="preserve">
<style type="text/css">
	.st0{fill:#FF695F;}
</style>
<path class="st0" d="M800,76.8c-29.3,13.1-61.2,21.8-94.2,25.9c34-20.3,59.9-52.4,72.1-90.8C746,30.6,711.1,44.3,673.6,51.8
	C643.7,20,600.9,0,553.8,0c-90.5,0-164.1,73.6-164.1,164.1c0,12.8,1.2,25.3,4.4,37.4c-136.4-6.8-257.4-72-338.2-171.5
	c-14,24.3-22.2,52.4-22.2,82.7c0,56.8,29,107,73,136.7c-26.8-0.9-52.1-8.4-74.3-20.6v1.9c0,79.6,56.5,146,131.7,161
	c-13.7,3.7-28.4,5.9-43.4,5.9c-10.6,0-20.9-0.9-30.9-2.8C110.7,460,171.2,507.4,243,508.7c-56.2,44-127,70.2-203.7,70.2
	c-13.1,0-26.2-0.6-39.3-2.2c72.7,46.5,158.8,73.6,251.5,73.6c302,0,467.1-250.2,467.1-467.1c0-7.2,0-14.4-0.3-21.2
	C750.4,138.5,778.2,109.8,800,76.8"/>
</svg>
