<?xml version="1.0" encoding="utf-8"?>
<!-- Generator: Adobe Illustrator 27.2.0, SVG Export Plug-In . SVG Version: 6.00 Build 0)  -->
<svg version="1.1" id="Layer_1" xmlns="http://www.w3.org/2000/svg" xmlns:xlink="http://www.w3.org/1999/xlink" x="0px" y="0px"
	 viewBox="0 0 716.7 716.7" style="enable-background:new 0 0 716.7 716.7;" xml:space="preserve">
<style type="text/css">
	.st0{fill:#002A4C;}
</style>
<g>
	<path class="st0" d="M458.3,716.7h-200c-92.3,0-154.9-19.5-196.8-61.5C19.5,613.2,0,550.7,0,458.3v-200C0,166,19.5,103.4,61.5,61.5
		C103.4,19.5,166,0,258.3,0h200c92.3,0,154.9,19.5,196.8,61.5c42,42,61.5,104.5,61.5,196.8v200c0,92.3-19.5,154.9-61.5,196.8
		C613.2,697.1,550.7,716.7,458.3,716.7z M258.3,50c-78.2,0-129.5,14.9-161.5,46.8c-32,32-46.8,83.3-46.8,161.5v200
		c0,78.2,14.9,129.5,46.8,161.5c32,32,83.3,46.8,161.5,46.8h200c78.2,0,129.5-14.9,161.5-46.8s46.8-83.3,46.8-161.5v-200
		c0-78.2-14.9-129.5-46.8-161.5c-32-32-83.3-46.8-161.5-46.8H258.3z"/>
</g>
<g>
	<path class="st0" d="M358.3,500c-78.1,0-141.7-63.6-141.7-141.7c0-78.1,63.6-141.7,141.7-141.7c78.1,0,141.7,63.6,141.7,141.7
		C500,436.4,436.4,500,358.3,500z M358.3,266.7c-50.5,0-91.7,41.1-91.7,91.7s41.1,91.7,91.7,91.7s91.7-41.1,91.7-91.7
		S408.9,266.7,358.3,266.7z"/>
</g>
<g>
	<path class="st0" d="M546.6,225h-0.4c-18.4,0-33.3-14.9-33.3-33.3s14.9-33.3,33.3-33.3h0.4c18.4,0,33.3,14.9,33.3,33.3
		S565,225,546.6,225z"/>
</g>
</svg>
