<?xml version="1.0" encoding="utf-8"?>
<!-- Generator: Adobe Illustrator 27.1.1, SVG Export Plug-In . SVG Version: 6.00 Build 0)  -->
<svg version="1.1" xmlns="http://www.w3.org/2000/svg" xmlns:xlink="http://www.w3.org/1999/xlink" x="0px" y="0px"
	 viewBox="0 0 148.6 105.5" style="enable-background:new 0 0 148.6 105.5;" xml:space="preserve">
<style type="text/css">
	.st0{fill:none;}
	.st1{fill:#3C55A5;}
	.st2{fill:#7854A3;}
	.st3{fill:#457CBF;}
	.st4{fill:#84C441;}
	.st5{fill:#F4D90C;}
	.st6{fill:#ED1C24;}
	.st7{fill:#F37121;}
</style>
<g id="Layer_1">
	<path d="M62.2,19.3c-0.9,6.6-5,15-15.7,15h-2.6l-4.6,28.3H28.8l8.8-58.2h13.1C61.4,4.3,63.2,12.7,62.2,19.3z M51.7,19.3
		c0.5-3.5-0.8-5.5-4.9-5.5l-1.6,11C49.4,24.8,51.2,22.8,51.7,19.3z"/>
	<path d="M61.4,46.3l5.9-42h10.5l-4.6,32.6h11L83,46.3H61.4z"/>
	<path d="M97.4,37.9l-2.3,8.5H84.3L98,4.4h14.6l1.7,42h-10.7l0.1-8.5H97.4z M103.8,28.5l0.1-14.2L100,28.5H103.8z"/>
	<path d="M130.5,46.3H120l1.9-14l-6-28h10.7l2.3,16.3l6.7-16.3h10.7l-14,28L130.5,46.3z"/>
	<path d="M37.2,77.1l18.3,0.4l-3.6,9.4l-16.1-0.4l-2.1,15H23.2l5.9-42h32.2l-3.5,9.6l-19.5-0.2L37.2,77.1z"/>
	<path d="M65,93l-2.3,8.5H51.9l13.6-42h14.6l1.7,42H71.1l0.1-8.5H65z M71.4,83.6l0.1-14.2l-3.9,14.2H71.4z"/>
	<path d="M97,101.5H86.5l5.9-42h10.5L97,101.5z"/>
	<path d="M121,101.5l-4.4-14.8l-2.2,14.8h-10.5l5.9-42H123c10.7,0,12.5,8.3,11.5,14.9c-0.7,4.8-3.5,9.1-8.6,11.1l6.1,16H121z
		 M124,74.4c0.5-3.5-0.8-5.5-4.9-5.5l-1.6,11C121.7,79.9,123.5,78,124,74.4z"/>
</g>
<g id="Layer_2">
	<polygon class="st0" points="-10,23.6 -4.8,22.5 -10,23.6 	"/>
	<g>
		<polygon points="9.9,78.9 21.5,76.4 21.5,76.4 9.9,78.9 		"/>
		<rect x="12.1" y="61.7" transform="matrix(0.9784 -0.2069 0.2069 0.9784 -12.3739 5.0585)" width="11.8" height="0"/>
		<polygon points="7.7,94.9 19.3,92.4 19.3,92.4 7.7,94.9 		"/>
		<rect x="16.7" y="29.7" transform="matrix(0.9783 -0.2072 0.2072 0.9783 -5.6769 5.3119)" width="11.7" height="0"/>
		<polygon class="st1" points="7.7,94.9 19.3,92.4 21.5,76.4 9.9,78.9 		"/>
		<polygon class="st2" points="6.6,102.1 17.9,102.1 19.3,92.4 7.7,94.9 		"/>
		<polygon class="st3" points="9.9,78.9 21.5,76.4 23.8,60.5 12.2,62.9 		"/>
		<polygon class="st4" points="14.5,46.9 12.2,62.9 23.8,60.5 26,44.5 		"/>
		<polygon class="st5" points="26,44.5 28.2,28.5 16.8,31 14.5,46.9 		"/>
		<polygon class="st6" points="31.6,4.6 20.6,4.6 19.2,14.4 30.5,12.3 		"/>
		<polygon class="st7" points="30.5,12.3 19.2,14.4 16.8,31 28.2,28.5 		"/>
	</g>
</g>
</svg>
