<?xml version="1.0" encoding="utf-8"?>
<!-- Generator: Adobe Illustrator 27.3.0, SVG Export Plug-In . SVG Version: 6.00 Build 0)  -->
<svg version="1.1" id="Layer_1" xmlns="http://www.w3.org/2000/svg" xmlns:xlink="http://www.w3.org/1999/xlink" x="0px" y="0px"
	 viewBox="0 0 466 132.5" style="enable-background:new 0 0 466 132.5;" xml:space="preserve">
<style type="text/css">
	.st0{fill:#0D2949;}
	.st1{fill:#FFFFFF;}
	.st2{fill:#F26961;}
	.st3{fill:#F4E1CB;}
	.st4{fill:#FBAB29;}
	.st5{fill:#5455A5;}
	.st6{fill:#057F6E;}
	.st7{fill:#010101;}
</style>
<g>
	<path class="st0" d="M466,116.3c-147.6,56.3-296.1-56.3-443.7,0c0-34.4,0-68.8,0-103.1c71.5-26.4,148.8-6.7,221.8,3.5
		c75.6,10.5,148.2,24.6,221.9-3.5C466,47.5,466,81.9,466,116.3z"/>
</g>
<g>
	<path class="st1" d="M81.7,45.5C81.6,60,72.4,74.4,57.2,76.8c-1.9,0.4-2.9,0.7-4.8,1.1c0,8.7,0,13,0,21.7
		c-7.6,1.9-11.3,2.9-18.9,5.5c0-25.2,0-50.4,0-75.6c9.5-3.1,14.2-4.4,23.7-6.6C72.4,17.9,81.8,32.4,81.7,45.5z M62.8,48.6
		c0-6.3-2.8-9.5-10.3-7.7c0,8,0,11.9,0,19.9C60,59,62.8,54.9,62.8,48.6z"/>
	<path class="st1" d="M88.9,93.4c0-25.2,0-50.4,0-75.6c7.6-0.8,11.3-1,18.9-1.3c0,19.6,0.1,39.1,0.1,58.7c8-0.3,11.9-0.3,19.9-0.2
		c0,6.8-0.1,10.2-0.1,17C114.8,91.7,101.8,92.1,88.9,93.4z"/>
	<path class="st1" d="M156.3,78.2c-0.8,6-1.2,9-2.1,15.1c-7.7-0.6-11.6-0.8-19.3-1.1c4.6-25,9.2-50,13.8-74.9
		c10.5,0.7,15.8,1.2,26.3,2.4c4.6,25.8,9.2,51.6,13.8,77.4c-7.7-1-11.6-1.5-19.3-2.4c-0.8-6.2-1.2-9.3-2.1-15.5
		C162.9,78.7,160.7,78.5,156.3,78.2z M165.3,62c-1.3-10.3-2-15.5-3.3-25.8c-1.4,10.1-2.1,15.1-3.5,25.2
		C161.3,61.6,162.6,61.8,165.3,62z"/>
	<path class="st1" d="M224,102.2c-7.6-1.2-11.3-1.8-18.9-3c0-10.1-0.1-15.2-0.1-25.3c-6-17.6-11.9-35.3-17.9-52.9
		c7.7,1,11.6,1.6,19.3,2.8c2.7,10.2,5.5,20.4,8.2,30.6c2.7-9.3,5.3-18.7,8-28c7.7,1.3,11.6,1.9,19.3,3.2c-6,15.8-12,31.6-18,47.4
		C223.9,87,223.9,92.1,224,102.2z"/>
	<path class="st1" d="M273.8,65.5c6.8,1,10.2,1.5,17,2.5c0,6.8-0.1,10.2-0.1,17c-6.8-0.9-10.2-1.4-17-2.5c0,10.8,0,16.2,0,27
		c-7.6-1.2-11.3-1.8-18.9-3c0-25.2,0-50.4,0-75.6c12.9,2.1,25.8,4.1,38.8,5.9c0,6.8,0.1,10.2,0.1,17c-8-1.1-11.9-1.7-19.9-2.9
		C273.8,56.7,273.8,59.6,273.8,65.5z"/>
	<path class="st1" d="M318.7,100c-0.8,6-1.2,9-2.1,15c-7.7-0.8-11.6-1.2-19.3-2.2c4.6-24.7,9.2-49.3,13.8-74
		c10.5,1.1,15.8,1.6,26.3,2.2c4.6,25.4,9.2,50.8,13.8,76.2c-7.7-0.2-11.6-0.4-19.3-0.9c-0.8-6.2-1.2-9.2-2.1-15.4
		C325.4,100.7,323.2,100.5,318.7,100z M327.8,83.9c-1.3-10.3-2-15.5-3.4-25.8c-1.4,10.1-2.1,15.1-3.5,25.2
		C323.7,83.5,325.1,83.7,327.8,83.9z"/>
	<path class="st1" d="M381.9,116.8c-7.6,0.5-11.3,0.6-18.9,0.7c0-25.2,0-50.4,0-75.6c7.6-0.1,11.3-0.2,18.9-0.7
		C381.9,66.3,381.9,91.5,381.9,116.8z"/>
	<path class="st1" d="M428.4,109.8c-4.7-9.5-7.1-14.3-11.8-24c0,10.6-0.1,16-0.1,26.6c-7.6,1.5-11.3,2-18.9,2.9
		c0-25.2,0-50.4,0-75.6c9.5-1.1,14.2-1.9,23.7-3.9c15-3.4,24.6,5.8,24.5,20.4c0,8.6-4,17.8-12.6,23.7c4.9,8.1,9.9,16.2,15,24.3
		C440.3,106.8,436.3,107.9,428.4,109.8z M426.9,61.4c0-6.3-2.8-9.2-10.3-7.7c0,8,0,11.9,0,19.9C424.1,72.1,426.9,67.7,426.9,61.4z"
		/>
</g>
<g>
	<path class="st2" d="M22.3,49.5l-0.1-18.4L0.9,36.4c-0.1,5.3-0.3,11.7-0.4,18.5L22.3,49.5z"/>
	<path class="st3" d="M22.2,15.3c0-0.7-0.6-1.2-2.5-1c-3.8,0.5-14,4-16.4,4.7c-2.6,0.8-1.9,1.5-1.9,2.7C1.3,24,1.2,29.3,1,36.4
		l21.3-5.3L22.2,15.3z"/>
	<path class="st4" d="M0.2,73.4l22.2-5.5l-0.1-18.4L0.5,54.9C0.4,60.8,0.2,67.1,0.2,73.4z"/>
	<path class="st5" d="M0.1,110.2l22.3-5.5l-0.1-18.4L0,91.8C0,98.6,0,104.9,0.1,110.2z"/>
	<path class="st6" d="M0,91.8l22.4-5.5l-0.1-18.4L0.1,73.4C0.1,79.6,0,85.9,0,91.8z"/>
	<path class="st7" d="M1.8,127l0.1-0.1c11-6.7,20.7-6.4,20.5-14.3v-7.9l-22.3,5.5C0.3,120.7,0.8,127.6,1.8,127z"/>
</g>
</svg>
