<?xml version="1.0" encoding="utf-8"?>
<!-- Generator: Adobe Illustrator 27.1.1, SVG Export Plug-In . SVG Version: 6.00 Build 0)  -->
<svg version="1.1" xmlns="http://www.w3.org/2000/svg" xmlns:xlink="http://www.w3.org/1999/xlink" x="0px" y="0px"
	 viewBox="0 0 155.3 112.9" style="enable-background:new 0 0 155.3 112.9;" xml:space="preserve">
<style type="text/css">
	.st0{fill:#FFFFFF;}
	.st1{fill:none;}
	.st2{fill:#3C55A5;}
	.st3{fill:#7854A3;}
	.st4{fill:#457CBF;}
	.st5{fill:#84C441;}
	.st6{fill:#F4D90C;}
	.st7{fill:#ED1C24;}
	.st8{fill:#F37121;}
</style>
<g id="Layer_1">
	<path class="st0" d="M62.1,23c-0.9,6.6-5,15-15.7,15h-2.6l-4.6,28.3H28.7L37.4,8h13.1C61.3,8,63.1,16.4,62.1,23z M51.6,23
		c0.5-3.5-0.8-5.5-4.9-5.5l-1.6,11C49.3,28.5,51.1,26.5,51.6,23z"/>
	<path class="st0" d="M61.3,50l5.9-42h10.5l-4.6,32.6h11L82.9,50H61.3z"/>
	<path class="st0" d="M97.3,41.6L95,50H84.2L97.9,8h14.6l1.7,42h-10.7l0.1-8.5H97.3z M103.7,32.2l0.1-14.2l-3.9,14.2H103.7z"/>
	<path class="st0" d="M130.4,50h-10.5l1.9-14l-6-28h10.7l2.3,16.3L135.5,8h10.7l-14,28L130.4,50z"/>
	<path class="st0" d="M37.1,80.7l18.3,0.4l-3.6,9.4l-16.1-0.4l-2.1,15H23.2l5.9-42h32.2l-3.5,9.6l-19.5-0.2L37.1,80.7z"/>
	<path class="st0" d="M64.9,96.7l-2.3,8.5H51.9l13.6-42h14.6l1.7,42H71.1l0.1-8.5H64.9z M71.3,87.3l0.1-14.2l-3.9,14.2H71.3z"/>
	<path class="st0" d="M96.9,105.2H86.4l5.9-42h10.5L96.9,105.2z"/>
	<path class="st0" d="M120.9,105.2l-4.4-14.8l-2.2,14.8h-10.5l5.9-42h13.1c10.7,0,12.5,8.3,11.5,14.9c-0.7,4.8-3.5,9.1-8.6,11.1
		l6.1,16H120.9z M123.9,78.1c0.5-3.5-0.8-5.5-4.9-5.5l-1.6,11C121.6,83.6,123.4,81.6,123.9,78.1z"/>
</g>
<g id="Layer_2">
	<polygon class="st1" points="-10.1,27.3 -4.9,26.2 -10.1,27.3 	"/>
	<g>
		<polygon points="9.9,82.6 21.4,80.1 21.4,80.1 9.9,82.6 		"/>
		<rect x="12" y="65.3" transform="matrix(0.9784 -0.2069 0.2069 0.9784 -13.1355 5.1201)" width="11.8" height="0"/>
		<polygon points="7.6,98.6 19.2,96.1 19.2,96.1 7.6,98.5 		"/>
		<rect x="16.6" y="33.4" transform="matrix(0.9783 -0.2072 0.2072 0.9783 -6.4397 5.3737)" width="11.7" height="0"/>
		<polygon class="st2" points="7.6,98.6 19.2,96.1 21.4,80.1 9.9,82.6 		"/>
		<polygon class="st3" points="6.5,105.8 17.8,105.7 19.2,96.1 7.6,98.6 		"/>
		<polygon class="st4" points="9.9,82.6 21.4,80.1 23.7,64.1 12.1,66.6 		"/>
		<polygon class="st5" points="14.4,50.6 12.1,66.6 23.7,64.1 25.9,48.2 		"/>
		<polygon class="st6" points="25.9,48.2 28.2,32.2 16.7,34.6 14.4,50.6 		"/>
		<polygon class="st7" points="31.5,8.3 20.5,8.3 19.1,18.1 30.4,16 		"/>
		<polygon class="st8" points="30.4,16 19.1,18.1 16.7,34.6 28.2,32.2 		"/>
	</g>
</g>
</svg>
